# Blender v2.65 (sub 0) OBJ File: ''
# www.blender.org
o Cube
v 1.000000 -1.000000 -1.000000
v 1.000000 -1.000000 1.000000
v -1.000000 -1.000000 1.000000
v -1.000000 -1.000000 -1.000000
v 1.000000 1.000000 -0.999999
v 0.999999 1.000000 1.000001
v -1.000000 1.000000 1.000000
v -1.000000 1.000000 -1.000000
vt 0.004493 0.007053
vt 0.990387 0.007053
vt 0.990387 0.992947
vt 0.004493 0.992947
vt 0.977694 0.978974
vt 0.008439 0.978974
vt 0.008439 0.009720
vt 0.977694 0.009719
vt 0.992376 0.010291
vt 0.992375 0.991042
vt 0.011624 0.991042
vt 0.011625 0.010291
vt 0.985069 0.010264
vt 0.985069 0.993736
vt 0.001598 0.993736
vt 0.001598 0.010264
vt 0.008032 0.989408
vt 0.008032 0.006539
vt 0.990901 0.006539
vt 0.990901 0.989408
vt 0.001506 0.993161
vt 0.001506 0.010839
vt 0.983827 0.010839
vt 0.983828 0.993161
vn 0.000000 -1.000000 0.000000
vn 0.000000 1.000000 0.000000
vn 1.000000 0.000000 0.000000
vn -0.000000 -0.000000 1.000000
vn -1.000000 -0.000000 -0.000000
vn 0.000000 0.000000 -1.000000
s off
f 1/1/1 2/2/1 3/3/1
f 1/1/1 3/3/1 4/4/1
f 5/5/2 8/6/2 7/7/2
f 5/5/2 7/7/2 6/8/2
f 1/9/3 5/10/3 6/11/3
f 1/9/3 6/11/3 2/12/3
f 2/13/4 6/14/4 7/15/4
f 2/13/4 7/15/4 3/16/4
f 3/17/5 7/18/5 8/19/5
f 3/17/5 8/19/5 4/20/5
f 5/21/6 1/22/6 4/23/6
f 5/21/6 4/23/6 8/24/6
